<?xml version="1.0" standalone="no"?> <!DOCTYPE svg PUBLIC "-//W3C//DTD SVG 20010904//EN" "http://www.w3.org/TR/2001/REC-SVG-20010904/DTD/svg10.dtd"> <svg version="1.0" xmlns="http://www.w3.org/2000/svg" width="600.000000pt" height="600.000000pt" viewBox="0 0 600.000000 600.000000" preserveAspectRatio="xMidYMid meet"> <g transform="translate(0.000000,600.000000) scale(0.100000,-0.100000)" fill="#ee6c4d" stroke="none"> <path d="M855 4489 c-162 -17 -396 -93 -459 -149 -29 -27 -30 -29 -30 -124 -1 -145 -10 -143 219 -62 156 55 247 69 394 64 294 -12 381 -114 381 -450 l0 -106 -52 14 c-198 51 -470 62 -613 25 -332 -87 -506 -366 -430 -690 99 -420 685 -516 1049 -171 l71 68 35 -71 c19 -39 55 -92 78 -119 58 -64 83 -64 177 -2 129 86 134 96 86 192 -66 132 -64 113 -71 622 -8 522 -11 548 -86 691 -110 209 -382 307 -749 268z m405 -1025 c52 -9 98 -19 103 -23 11 -11 -10 -231 -28 -280 -107 -303 -646 -367 -725 -87 -48 173 30 335 185 385 105 35 282 37 465 5z"/> <path d="M4962 4489 c-363 -64 -575 -348 -484 -645 57 -185 176 -286 432 -369 63 -20 165 -53 225 -72 144 -47 195 -73 239 -124 83 -98 53 -249 -64 -321 -147 -90 -460 -79 -729 27 -104 40 -140 38 -142 -7 -4 -81 4 -176 17 -195 21 -33 145 -88 264 -117 556 -136 1005 78 1028 490 8 150 -36 263 -140 360 -76 70 -159 108 -398 184 -354 113 -420 161 -420 302 1 162 137 238 404 225 130 -6 196 -20 313 -67 129 -52 143 -44 143 83 l0 89 -37 38 c-91 90 -449 155 -651 119z"/> <path d="M1892 4438 c-7 -7 -12 -24 -12 -39 0 -28 469 -1585 497 -1652 27 -62 40 -67 195 -67 197 0 161 -69 327 630 77 322 147 622 157 668 10 45 20 82 24 82 4 0 14 -37 24 -82 78 -367 300 -1255 318 -1275 20 -22 29 -23 164 -23 185 0 180 -4 239 185 24 77 140 452 259 833 119 381 216 699 216 707 0 36 -28 45 -150 45 -131 0 -161 -7 -185 -43 -14 -22 -242 -891 -325 -1237 -36 -155 -39 -164 -44 -159 -3 2 -16 58 -31 124 -84 378 -288 1235 -300 1263 -20 44 -47 52 -183 52 -127 0 -159 -9 -179 -50 -10 -22 -239 -983 -293 -1230 -30 -139 -31 -143 -35 -139 -2 2 -78 301 -169 664 -176 699 -184 726 -222 744 -35 15 -276 15 -292 -1z"/> <path d="M5366 2249 c-263 -39 -546 -183 -483 -246 14 -14 32 -14 174 3 188 22 496 25 560 6 99 -29 121 -92 89 -253 -19 -95 -97 -332 -150 -459 -125 -295 137 -113 298 208 107 212 176 585 123 665 -46 70 -373 111 -611 76z"/> <path d="M22 2134 c-51 -36 -6 -94 198 -255 1330 -1053 3127 -1263 4665 -544 198 92 535 298 569 347 31 43 19 101 -25 123 -42 22 -56 20 -204 -40 -1590 -647 -3518 -533 -5005 297 -160 89 -169 93 -198 72z"/> </g> </svg>