<?xml version="1.0" standalone="no"?> <!DOCTYPE svg PUBLIC "-//W3C//DTD SVG 20010904//EN" "http://www.w3.org/TR/2001/REC-SVG-20010904/DTD/svg10.dtd"> <svg version="1.0" xmlns="http://www.w3.org/2000/svg" width="151.000000pt" height="148.000000pt" viewBox="0 0 151.000000 148.000000" preserveAspectRatio="xMidYMid meet"> <g transform="translate(0.000000,148.000000) scale(0.100000,-0.100000)" fill="#ee6c4d" stroke="none"> <path d="M645 1386 c-49 -29 -192 -110 -317 -181 -167 -93 -228 -132 -228 -146 0 -13 47 -44 167 -112 196 -111 232 -131 293 -165 25 -14 76 -43 115 -65 38 -22 74 -40 80 -40 5 0 135 70 287 157 152 86 284 159 292 162 14 5 16 -5 16 -64 l0 -70 -40 -21 c-21 -11 -150 -84 -285 -161 -136 -78 -253 -144 -260 -147 -8 -2 -153 75 -323 171 -201 115 -315 174 -326 170 -14 -5 -16 -25 -16 -133 l0 -127 72 -41 c40 -22 187 -104 326 -183 139 -78 259 -140 266 -137 7 3 123 67 257 143 134 75 259 145 277 156 18 10 37 18 42 18 6 0 10 -30 10 -67 l-1 -68 -177 -99 c-97 -55 -232 -130 -300 -168 -86 -48 -127 -66 -135 -60 -36 30 -603 342 -616 340 -9 -2 -16 -13 -16 -26 0 -20 26 -38 160 -114 383 -215 479 -268 490 -268 11 0 102 49 473 259 l182 103 0 123 c0 91 -3 125 -14 134 -10 9 -81 -28 -322 -164 -169 -96 -313 -175 -320 -175 -6 0 -142 75 -303 166 l-291 165 0 70 c0 38 2 69 4 69 3 0 42 -22 88 -48 46 -27 112 -64 148 -84 36 -20 130 -72 209 -117 78 -45 145 -81 146 -81 3 0 94 51 445 249 74 42 152 85 173 96 l37 20 0 126 c0 108 -2 128 -16 133 -10 4 -108 -46 -268 -137 -138 -79 -278 -158 -312 -177 l-60 -33 -60 33 c-195 108 -494 283 -494 288 0 4 49 34 108 66 59 33 159 90 222 126 63 36 140 78 171 94 l56 29 69 -38 c38 -21 140 -78 226 -127 160 -90 198 -102 198 -58 0 13 -50 46 -182 120 -101 57 -209 118 -241 137 -32 18 -66 33 -75 32 -9 0 -57 -24 -107 -53z"/> </g> </svg>