<?xml version="1.0" standalone="no"?>
<!DOCTYPE svg PUBLIC "-//W3C//DTD SVG 20010904//EN"
 "http://www.w3.org/TR/2001/REC-SVG-20010904/DTD/svg10.dtd">
<svg version="1.0" xmlns="http://www.w3.org/2000/svg"
 width="512.000000pt" height="512.000000pt" viewBox="0 0 512.000000 512.000000"
 preserveAspectRatio="xMidYMid meet">
<g transform="translate(0.000000,512.000000) scale(0.050000,-0.050000)"
fill="#ee6c4d" stroke="none">
<path d="M5800 8068 c-86 -37 -154 -99 -195 -178 -67 -128 -1765 -5262 -1765
-5336 0 -419 602 -574 795 -204 67 128 1765 5262 1765 5336 0 292 -327 500
-600 382z"/>
<path d="M3250 6792 c-60 -26 -1685 -1236 -1823 -1358 -194 -169 -194 -459 0
-628 149 -132 1765 -1333 1827 -1359 335 -140 694 215 555 549 -47 113 -93
152 -754 648 -338 253 -615 468 -615 476 0 8 277 223 615 476 661 496 707 535
754 648 140 335 -226 694 -559 548z"/>
<path d="M6650 6787 c-281 -148 -334 -499 -106 -699 39 -34 338 -263 663 -507
326 -245 593 -453 593 -461 0 -8 -267 -216 -593 -461 -699 -525 -722 -545
-770 -649 -153 -338 206 -706 550 -563 73 31 1798 1319 1867 1395 138 151 138
405 0 556 -69 76 -1794 1364 -1867 1395 -87 36 -262 33 -337 -6z"/>
</g>
</svg>
