<?xml version="1.0" standalone="no"?> <!DOCTYPE svg PUBLIC "-//W3C//DTD SVG 20010904//EN" "http://www.w3.org/TR/2001/REC-SVG-20010904/DTD/svg10.dtd"> <svg version="1.0" xmlns="http://www.w3.org/2000/svg" width="240.000000pt" height="240.000000pt" viewBox="0 0 240.000000 240.000000" preserveAspectRatio="xMidYMid meet"> <g transform="translate(0.000000,240.000000) scale(0.050000,-0.050000)" fill="#ee6c4d" stroke="none"> <path d="M2058 4560 c-1372 -232 -2151 -1567 -1714 -2934 3 -9 -24 -77 -61 -150 -113 -222 -81 -470 78 -604 32 -26 299 -186 593 -355 591 -337 698 -374 861 -290 55 29 76 29 228 0 185 -35 666 -28 799 12 57 17 88 15 145 -9 97 -41 265 -37 363 7 152 69 1040 588 1097 640 160 149 190 382 76 606 -66 132 -66 132 -35 224 423 1247 -397 2615 -1706 2844 -175 30 -567 35 -724 9z m868 -328 c1069 -320 1641 -1420 1286 -2471 -54 -158 -72 -187 -88 -141 -66 188 -194 193 -504 20 l-250 -139 -12 110 c-25 221 -229 299 -356 136 -43 -54 -44 -65 -38 -622 l6 -566 -70 -19 c-364 -102 -1110 -55 -1066 68 22 60 6 1094 -18 1139 -92 172 -356 76 -356 -130 0 -131 -2 -131 -271 24 -296 171 -398 175 -480 18 -41 -81 -57 -65 -116 116 -363 1116 298 2254 1447 2496 217 46 669 26 886 -39z"/> <path d="M1450 3582 c-162 -74 -273 -240 -278 -411 l-2 -101 69 0 c66 0 71 5 87 86 69 349 580 331 653 -23 11 -56 20 -63 82 -63 l69 0 -4 104 c-14 331 -373 548 -676 408z"/> <path d="M2970 3592 c-233 -102 -412 -532 -222 -532 64 0 69 5 82 81 59 346 562 355 654 12 38 -145 156 -143 156 2 -1 327 -371 568 -670 437z"/> <path d="M1480 2620 c-158 -158 261 -570 681 -669 412 -97 883 74 1121 406 206 289 -6 424 -247 157 -380 -424 -948 -412 -1288 26 -105 135 -188 159 -267 80z"/> </g> </svg>