<?xml version="1.0" standalone="no"?>
<!DOCTYPE svg PUBLIC "-//W3C//DTD SVG 20010904//EN"
 "http://www.w3.org/TR/2001/REC-SVG-20010904/DTD/svg10.dtd">
<svg version="1.0" xmlns="http://www.w3.org/2000/svg"
 width="600.000000pt" height="600.000000pt" viewBox="0 0 600.000000 600.000000"
 preserveAspectRatio="xMidYMid meet">
<g transform="translate(0.000000,600.000000) scale(0.100000,-0.100000)"
fill="#000000" stroke="none">
<path d="M1103 5082 c-100 -35 -171 -115 -193 -216 -8 -36 -10 -582 -8 -1896
l3 -1845 21 -46 c31 -66 78 -114 142 -146 l57 -28 1875 0 1875 0 57 28 c64 32
111 80 142 146 21 45 21 55 21 796 l0 750 -28 57 c-53 107 -143 162 -267 163
-62 0 -85 -5 -132 -28 -64 -32 -111 -80 -142 -146 -20 -45 -21 -61 -24 -608
l-3 -563 -1499 0 -1500 0 0 1500 0 1499 563 3 c547 3 563 4 608 24 66 31 114
78 146 142 23 47 28 70 28 132 0 125 -62 222 -174 274 -45 21 -57 21 -781 23
-685 2 -738 1 -787 -15z"/>
<path d="M3502 5081 c-101 -35 -172 -116 -194 -224 -23 -108 22 -227 110 -294
74 -57 116 -63 401 -63 l256 0 -666 -667 c-741 -743 -704 -699 -704 -838 0
-166 123 -289 290 -290 139 0 95 -38 837 703 l667 665 3 -274 c3 -254 5 -277
24 -320 31 -66 78 -114 142 -146 47 -23 70 -28 132 -28 125 0 222 62 274 174
21 45 21 59 24 707 3 658 2 662 -19 720 -29 77 -96 144 -172 173 -57 21 -67
21 -705 21 -600 -1 -651 -2 -700 -19z"/>
</g>
</svg>
