<?xml version="1.0" standalone="no"?> <!DOCTYPE svg PUBLIC "-//W3C//DTD SVG 20010904//EN" "http://www.w3.org/TR/2001/REC-SVG-20010904/DTD/svg10.dtd"> <svg version="1.0" xmlns="http://www.w3.org/2000/svg" width="600.000000pt" height="600.000000pt" viewBox="0 0 600.000000 600.000000" preserveAspectRatio="xMidYMid meet"> <g transform="translate(0.000000,600.000000) scale(0.100000,-0.100000)" fill="#ee6c4d" stroke="none"> <path d="M1632 4364 c-165 -44 -286 -151 -350 -311 l-27 -68 -3 -885 c-2 -626 0 -903 8 -945 19 -98 73 -196 148 -266 62 -58 166 -119 205 -119 15 0 17 13 17 130 l0 130 -39 36 c-22 19 -49 54 -60 77 -20 42 -21 59 -21 919 l-1 876 22 46 c24 51 75 101 125 122 28 12 255 14 1344 14 1447 0 1348 4 1418 -63 19 -18 43 -50 55 -72 l22 -40 0 -880 0 -880 -23 -43 c-12 -23 -40 -59 -62 -80 l-40 -37 0 -127 c0 -150 -3 -148 107 -93 124 62 222 184 258 320 23 89 23 1791 0 1880 -23 87 -62 152 -135 226 -68 69 -139 110 -231 134 -80 22 -2658 21 -2737 -1z"/> <path d="M3838 3721 c-30 -19 -52 -44 -67 -73 l-21 -44 0 -979 c0 -977 0 -979 21 -1023 33 -66 86 -97 170 -97 60 0 71 3 106 31 21 17 47 46 58 65 20 33 20 54 23 1002 2 660 -1 981 -8 1008 -13 48 -64 107 -107 125 -56 24 -123 18 -175 -15z"/> <path d="M2588 3221 c-30 -19 -52 -44 -67 -73 -21 -44 -21 -48 -21 -779 l0 -735 29 -46 c59 -92 187 -117 269 -51 20 17 46 45 57 64 19 33 20 55 23 752 2 486 -1 731 -8 758 -13 48 -63 107 -107 125 -56 24 -123 18 -175 -15z"/> <path d="M3250 2867 c-48 -16 -107 -78 -120 -126 -7 -28 -10 -213 -8 -573 3 -512 4 -534 23 -567 11 -19 37 -48 58 -64 31 -26 49 -32 100 -35 56 -3 67 0 110 27 34 22 54 44 68 76 19 42 19 66 17 599 l-3 554 -31 39 c-17 21 -45 46 -61 55 -39 23 -109 30 -153 15z"/> <path d="M1982 2483 c-44 -21 -89 -74 -101 -120 -14 -51 -14 -675 0 -726 13 -47 63 -106 106 -123 80 -34 183 -4 230 67 l28 43 3 364 c3 357 2 365 -19 409 -43 89 -159 129 -247 86z"/> </g> </svg>