<?xml version="1.0" standalone="no"?> <!DOCTYPE svg PUBLIC "-//W3C//DTD SVG 20010904//EN" "http://www.w3.org/TR/2001/REC-SVG-20010904/DTD/svg10.dtd"> <svg version="1.0" xmlns="http://www.w3.org/2000/svg" width="600.000000pt" height="600.000000pt" viewBox="0 0 600.000000 600.000000" preserveAspectRatio="xMidYMid meet"> <g transform="translate(0.000000,600.000000) scale(0.100000,-0.100000)" fill="#080808" stroke="none"> <path d="M2800 5249 c-341 -17 -672 -80 -921 -175 -250 -95 -423 -226 -493 -374 l-31 -65 0 -450 0 -450 33 -67 c121 -246 516 -433 1072 -509 85 -12 165 -23 178 -25 l22 -4 0 -580 0 -580 -25 0 c-52 0 -294 -53 -395 -87 -195 -65 -331 -143 -428 -247 -124 -133 -152 -277 -81 -424 26 -52 113 -148 177 -196 56 -41 187 -107 278 -142 307 -115 800 -158 1184 -103 215 30 444 98 587 174 152 80 240 161 299 275 26 50 29 64 28 150 0 108 -16 152 -84 239 -126 159 -417 292 -765 349 l-110 18 -3 576 -2 576 37 6 c21 3 67 8 103 12 102 9 324 52 450 85 356 94 612 254 702 437 l33 67 0 450 0 450 -31 65 c-86 181 -321 333 -669 433 -119 34 -312 72 -460 91 -102 13 -489 39 -520 34 -5 0 -80 -5 -165 -9z m550 -225 c656 -64 1146 -297 1081 -514 -49 -163 -371 -324 -796 -399 -234 -42 -294 -46 -635 -46 -341 0 -401 4 -635 46 -352 62 -658 194 -758 326 -69 92 -58 165 37 258 163 159 546 285 1001 329 185 17 525 18 705 0z m-1723 -880 c119 -79 317 -156 538 -209 746 -180 1734 -88 2196 203 36 23 69 42 73 42 3 0 6 -85 6 -188 0 -183 -1 -189 -26 -241 -76 -152 -406 -301 -821 -370 -362 -61 -744 -64 -1118 -10 -447 64 -808 219 -889 380 -25 52 -26 58 -26 241 0 103 3 188 6 188 4 0 31 -16 61 -36z m1483 -1894 l0 -871 -117 3 -118 3 -2 852 c-2 468 0 859 3 867 5 13 26 16 120 16 l114 0 0 -870z m-450 -666 l0 -176 -36 7 c-71 13 -210 57 -287 90 -85 36 -187 95 -187 107 0 20 228 96 365 122 44 8 89 17 100 19 11 3 26 5 33 6 9 1 12 -40 12 -175z m776 156 c131 -24 222 -49 328 -92 l79 -31 -24 -20 c-29 -24 -132 -76 -219 -111 -62 -26 -240 -76 -267 -76 -10 0 -13 38 -13 175 0 96 1 175 3 175 2 0 53 -9 113 -20z m-1414 -304 c182 -126 416 -212 679 -251 125 -18 425 -21 549 -5 271 35 526 126 711 255 59 41 65 43 81 28 10 -9 23 -34 30 -55 46 -154 -209 -323 -606 -403 -317 -63 -719 -58 -1020 14 -195 47 -363 123 -453 204 -65 60 -83 92 -83 148 0 35 31 109 45 109 2 0 32 -20 67 -44z"/> </g> </svg>